<svg xmlns="http://www.w3.org/2000/svg" viewBox="0 0 62.55 62.08"><defs><style>.cls-1{fill:#fff;opacity:0.5;}.cls-2,.cls-4{fill:#f0b775;}.cls-3{fill:#fd5959;}.cls-4{opacity:0.58;}.cls-5{opacity:0.68;}.cls-6{fill:#4d4d4d;}</style></defs><title>ball資產 16</title><g id="圖層_2" data-name="圖層 2"><g id="圖層_1-2" data-name="圖層 1"><ellipse class="cls-1" cx="31.39" cy="31.06" rx="30" ry="29.99"/><path class="cls-2" d="M34.56,39.55c-1.37-6.33-9.33-17-8.19-24.19a43.4,43.4,0,0,1,5-13.6S18.68,11.81,18.68,21.17,27.9,36.6,28.56,44.62,25,60.35,25,60.35,35.93,45.88,34.56,39.55Z"/><path class="cls-3" d="M35.14,22.34c-3.75-7-3.75-20.58-3.75-20.58-5.34,29.34,6.55,24.76,6.55,38.13,0,8-12.91,20.47-12.91,20.47,8.57-4.19,16.11-13.18,16.6-19.67S39.9,31.22,35.14,22.34Z"/><path class="cls-3" d="M37.94,39.89c0-13.37-11.88-8.78-6.55-38.13a43.4,43.4,0,0,0-5,13.6c-1.14,7.14,6.82,17.86,8.19,24.19S25,60.35,25,60.35,37.94,47.91,37.94,39.89Z"/><path class="cls-4" d="M37.94,39.89c0-13.37-11.88-8.78-6.55-38.13a43.4,43.4,0,0,0-5,13.6c-1.14,7.14,6.82,17.86,8.19,24.19S25,60.35,25,60.35,37.94,47.91,37.94,39.89Z"/><g class="cls-5"><path class="cls-6" d="M62.06,31c-.09-.1-.28,0-.25.23l.32.2Z"/><path class="cls-6" d="M61.35,32.88c.14.33.41.73.72.54-.3-.35-.16-.42-.52-.79,0-.28.13-.48.25-.43-.08-.1.09-.43-.11-.58a1.26,1.26,0,0,0-.12,1.29C61.49,33,61.41,32.91,61.35,32.88Z"/><path class="cls-6" d="M48.5,55.08l.16-.07A.5.5,0,0,0,48.5,55.08Z"/><path class="cls-6" d="M33.34,60.29c.12,0,.17,0,.18-.08S33.31,60.26,33.34,60.29Z"/><path class="cls-6" d="M30.58,60l.16,0C30.68,60,30.62,60,30.58,60Z"/><path class="cls-6" d="M48.5,55.08l-.41.18C48.13,55.37,48.31,55.19,48.5,55.08Z"/><path class="cls-6" d="M61.7,36.69a.78.78,0,0,0,0-.26v.24Z"/><path class="cls-6" d="M53.59,50.08l.09-.1a.78.78,0,0,0,0-.17Z"/><path class="cls-6" d="M56.7,45.6c-.07.1.15.28.23.38a.38.38,0,0,1,0-.33A.42.42,0,0,0,56.7,45.6Z"/><path class="cls-6" d="M60.33,37.7v0Z"/><path class="cls-6" d="M50.8,52.81a.22.22,0,0,0-.1,0A.15.15,0,0,0,50.8,52.81Z"/><path class="cls-6" d="M62,24.32h0S62,24.36,62,24.32Z"/><path class="cls-6" d="M61.32,31l0-.09-.16,0Z"/><path class="cls-6" d="M25.69,59.09h0C25.85,59.09,25.77,59.08,25.69,59.09Z"/><path class="cls-6" d="M3.22,24.94c-.38.45-.1-.89-.57-.19C2.77,24.71,2.89,25.53,3.22,24.94Z"/><path class="cls-6" d="M61.64,36.83l0,.23A.9.9,0,0,0,61.64,36.83Z"/><path class="cls-6" d="M2.64,24.75h0l0,.07Z"/><path class="cls-6" d="M15.19,54.84a.38.38,0,0,0,0,.17S15.22,54.94,15.19,54.84Z"/><path class="cls-6" d="M22.71,58.92l-.19-.11A.87.87,0,0,0,22.71,58.92Z"/><path class="cls-6" d="M11.48,52.34c-.07-.09-.07-.15-.22-.23a.18.18,0,0,0,0,.06A.28.28,0,0,1,11.48,52.34Z"/><path class="cls-6" d="M8.33,48.9a.85.85,0,0,0,0,.1l.1.11Z"/><path class="cls-6" d="M55.17,10.9a.78.78,0,0,1,0,.33C55.23,11,55.78,11.54,55.17,10.9Z"/><path class="cls-6" d="M61.55,36.66a.19.19,0,0,1,.1.17v-.16S61.58,36.63,61.55,36.66Z"/><path class="cls-6" d="M9.81,53.83l-.56-.57A6.92,6.92,0,0,0,9.81,53.83Z"/><path class="cls-6" d="M22.79,1.14,23,1.06A.27.27,0,0,0,22.79,1.14Z"/><path class="cls-6" d="M7.63,51.54a1.27,1.27,0,0,0-.15-.46.32.32,0,0,0-.12,0Z"/><path class="cls-6" d="M55.13,11.23h0Z"/><path class="cls-6" d="M58.66,15.14c-.39-.66-.5-.12-.76-.15-.55-.71,0-.5,0-.86-.37-.44-.89-.61-1.14-.94,0-.06,0-.14.12-.11-.6-.3-1.06-1.41-1.78-1.72a.21.21,0,0,1,0-.12.74.74,0,0,1-.32.4c-.23-.24-.59-.3-.49-.55.13.15.22.1.34.12L54.35,11c.05-.46.41.27.61.11a7.47,7.47,0,0,1-1.57-1.28c.17-.32.91.83.66.1l.45.69c0-.82.31.39.35-.41-.67-.86-.91-.81-1.63-1.62-.31,0-.14.25-.44.23C51.43,8.08,52.45,7.4,51.32,7c-.37,0-.73.27-1.22-.39l.45-.14c-.82-.66-.81.09-1.52-.77.24,0,.73.38.63.25-.39-.67-.53-.12-1-.44l.1-.34c-1-.51-2.12-1-3.25-1.48.11-.06.35-.06.14-.28a14.44,14.44,0,0,1-2.19-1C42.74,2,42,1.64,41.33,1.28l-.63.08c-.12,0-.2-.19,0-.21-.54-.25-.08.17-.39.21s-.38-.27-.15-.3a14.52,14.52,0,0,1-2-.18,8.68,8.68,0,0,1-2-.45l.22-.05c-.82-.25-1,.45-1.75.07l.15,0A26,26,0,0,0,32,.21c-.45,0-.89,0-1.3-.05A5.6,5.6,0,0,1,29.57,0c-.23.43-1.83-.09-1.88.55A8.15,8.15,0,0,0,25.41.3c-.4,0-.5.48-1,.65l-.08-.3-.56.48L23.38.87,23,1.06c.18,0,.41,0,.41.13a2.73,2.73,0,0,1-1.12.21c-.36,0-.64,0-.67-.08l-1.5.83c0-.13.24-.27.42-.42-.74.6-.27-.25-.95.31.13,0,0,.19,0,.25a4.24,4.24,0,0,0-1.9.76l0-.25a24.33,24.33,0,0,0-3.5,2.08c.49-.18.58.19.26.43l-.32-.19c-.11.3.43-.12.11.37-.44.27-.49-.1-.31-.37l-.45.47c-.09-.06,0-.19,0-.31-.09.32-1.09.4-1.18.91l-.09-.05a8,8,0,0,0-1.29,1.12c-.34.35-.65.67-1.07,1.06.18.22-.2.48-.29.87A19.17,19.17,0,0,0,7.46,11c-.35.63.05.31,0,.67-.23-.12-.82.7-.65.17-.35.5-.57.82-.8,1.18l-.36.6-.4.88c.18-.09.31-.22.33-.09s-.42.48-.5.38l0-.08a11.41,11.41,0,0,1-1.51,2.36,4.24,4.24,0,0,0-1.1,2.3v-.08l-.23,1.43c-.27.6,0-.43-.36,0a4.94,4.94,0,0,1-.19,1,7.86,7.86,0,0,1-.24.87,5.83,5.83,0,0,0-.38,1.7c-.53.39-.59,1.27-.7,2.19,0,.46-.09.93-.15,1.36A3.63,3.63,0,0,1,0,29.07L.18,29c.16.35-.12.41-.18.66.14,0,.18-.36.26-.15,0,1.45,0,2.93,0,4.45,0,.76.09,1.51.13,2.27l.08,1.14L.69,38.5c.23,1.08,1,.36,1,1.8L1.26,40a25.48,25.48,0,0,1,1.29,3.1A16.17,16.17,0,0,0,4.11,46c-.13-.07-.23,0-.32-.22,0,.52.86,1.45,1,1.36.15.3-.11.16-.09.39.13.47.84.82.79,1.14,0,.05-.14-.06-.2-.12.27.18.81,1.13.86.74.39.72,1,1.17,1.3,1.76.52.11.82,1.12,1.23.93-.37.26.67,1.32,1.22,1.47-.22,0,.23.4,0,.4.44.39.89.69,1,.44.42,1.17,1.93,1,2,1.93l1.12.63,1.13.52c.74.33,1.41.74,2.14,1-.28.41-1.51-.78-1.69-.35.34.15.65.27.95.38l.88.23a7,7,0,0,1,1.74.7c.31.22-.27.09-.42.1l2,.72a6.78,6.78,0,0,0,1.94.53s-.16,0-.3,0c.25.05.56.21.59,0h-.26c-.31-.39,1.15-.35,1.23-.49-.56.46,1.19.46.36,1,.17,0,.4,0,.39-.18.23.1.29.2,0,.29.92.12.65-.21,1.46-.06,0,.1-.19.11-.3.21a2.59,2.59,0,0,1,1.57-.07c0,.05,0,.14-.19.11,1.2.2,2.08-.33,3.37-.05-.4.41.44.16.51.54l.36,0,.36-.07-.29-.17a9.08,9.08,0,0,1,1.69-.23l-.45.18,1.16-.13-.66-.11c.61-.22-.1-.47.72-.41-.16,0,.61,0,.95.14h0a1.73,1.73,0,0,1,1-.31c.13.1,0,.42.06.49.25-.36,1.42-.28,1.72-.71a.27.27,0,0,0,0,.33l.19-.31c.29,0,.34,0,.33.2.84-.17-.37-.39.66-.45-.07,0,0,.07-.18.15a23.62,23.62,0,0,0,2.78-.86c.39.26-.74.37-.34.56.63-.27,1.26-.62,1.88-.94a16.39,16.39,0,0,1,1.8-1l-.24.07c-.08-.56,1-.18,1.47-.71-.12.12,0,.36,0,.29a13.87,13.87,0,0,0,2.57-1.93l-.06.21c.49-.22,1.16-.78,1.66-1.07.05-.21.33-.39,0-.42a3.72,3.72,0,0,0,2-1.53A5.81,5.81,0,0,1,54,51.66c-.12.14-.21.41-.11.3l.81-1.07c-.25-.07-.22,0-.55.13a1.53,1.53,0,0,1,.4-.8c-.29.53.3.25.55.11-.08,0-.09-.13-.16-.16.74-.3-.29-.38.48-1l.07.11a3.85,3.85,0,0,1,.48-1c.31,0-.12.37,0,.52.31-.45.23-1.12.68-1.39a6,6,0,0,1-.3.73c.58-.24.51-.37.77-.67l0,0,.6-.71-.19.16c-.27-.94.66-1.21.61-2.25,0,1,.16.25.4.45.18-.17.41-.45.45-.32,0-.5.49-.57.43-1.27.1,0,.21-.41.39-.23.17-.54-.21.05-.3,0,.06-.9,1.1-1.76,1.11-3.07.12-1.08-.17-1.36-.08-2.34.23-.28.28.34.28.34a2.41,2.41,0,0,0,.34-1.4c.07.12.15,0,.29-.11,0-.41-.31-.33-.09-.84a1.47,1.47,0,0,1,.32.47c0-.49-.12-1-.14-1.49.19-.11.21.33.29.52,0-.57.08-1.46-.21-1.66l-.12.35c0-.2.24-.08.27.07.14.5-.2.67-.3.69v-.35c-.62.28-.12,1.4-.26,2.1l-.36-.36.23.78c-.14.13-.38.18-.38-.17-.29.45,0,.46-.28.83,0,0-.06,0-.07,0v.5c-.06-.11-.31,0-.17-.27-.45.78,0,1.44-.43,1.67v-.08c-.22,1.2.27.2.31,1.18L59.1,41l.25.22c-.05.11-.16.34-.26.25,0,.51.15,0,.24.3a2.93,2.93,0,0,0-.47,1c-.15.32-.3.59-.55.55.12.29.41-.45.28.2-.55-.06-.24.71-.7,1.1-.17-.28.18-.67-.27-.29.27.51-.55.91-.73,1.33.3.2-.39.93-.69,1.66,0-.08-1,1.08-1.54,1.57l0-.05c.2.32-.27.91-.58,1.35-.16-.16-.15-.28,0-.57,0,0-.33.38-.33.38a.93.93,0,0,1-.24.59l-.12-.28c-.44.49-.65,1.24-1.41,1.71.14.22,1,0,.45.79-.12-.08-.31-.22-.17-.43,0,.07-.13.27-.29.34l.11-.42c-.36.19,0,.28-.27.48-.13-.15-.27.06-.34-.09s.26-.13.3-.26a1.8,1.8,0,0,1-.89.4c.1.06.18.2,0,.39-.49.46-.33,0-.68.16,0,.22-.46.37-.28.6-.16.12-.27,0-.38,0-.2.31-1.27,1-.78,1l.08,0,0,0h0c-.73,1-2.09,1.15-3,1.87l0-.09c-.53.45-1.32.73-1.66,1.14-.18.09-.5,0-.48-.1-.44.28-.43.45-1.2.55.42-.34-.23-.08.45-.3-.66.15-.86.05-1.44.55.14-.32-.58-.13-.85.05H41a5.48,5.48,0,0,1-.93.33l.06-.38a3.63,3.63,0,0,0-1.77.58c-.52.26-1,.55-1.59.27-.31.28.76.05.5.37a7.45,7.45,0,0,1-1.55-.29c-.86-.07-.72.63-1.63.59.13.11.27.42-.41.57-.65,0-.81-.46-.42-.57.15,0,.22,0,.22.06.2-.05.46-.12.2-.23l-.07.12c-.32-.11-1.18,0-1-.25-.46.14-.19.2.16.25-.81-.15-1.25.11-2.08-.08.13.07.25.22.12.21-1.21-.21-.54.2-1.37.21-.46-.2.2-.42-.64-.31-.49-.15-.08-.32.13-.41-.77.22-1.36-.33-1.77-.41l.4,0a2.37,2.37,0,0,1-.62,0l.19.27c-.22-.08-.41-.11-.39-.2-.26.12.12.42-.39.56-.28-.17-1,0-1-.36.94.28,0-.32.77-.24a1.37,1.37,0,0,1-.57-.09s0-.05.11-.07c-.83-.49-.48.25-1.42,0,.16-.14-.13-.38-.29-.38.37.1.11.33-.28.37-.56-.29-.68-.07-1-.17l.34.15c-.17.14-.47,0-.9-.07,0-.14.4,0,.27-.07-.56.13-.92-.68-1.62-.71-.25-.22.09-.32-.13-.49-.79,0-.64-.54-1.42-.69.1.31.17.28-.43.25l1.24.41-.89,0c.36.17.8.24,1,.35-.45,0-.38,0-.29.25-.34-.56-1.06-.28-1.52-.77l.28-.52a3,3,0,0,0-1.2-.55,4.47,4.47,0,0,1-1.37-.69l.28.29c-.26.12-.66-.36-1-.48.14-.15,0-.33-.1-.52-.07.13-.69-.54-1-.28l-.28-.53c-.71-.67-1.26-.2-1.92-.91.35,0,.13-.36.69-.06-.23-.21-.41-.43-.51-.33-.05-.21-.82-.39-.91-.72-.16,0-.33.09-.59-.16,0-.05.07-.07.07-.07s-.49-.3-.43.08a3.39,3.39,0,0,0-1-1.55,8.53,8.53,0,0,1-.65-.71,1.73,1.73,0,0,1-.3-.76c-.46-.51-1-1.13-1.39-1.64.07,0,.08-.05.13.06-.29-.84-.75-.15-1.09-1.1,0-.6.42.36.36,0,.5-.46-.72-1-.68-1.73l.1.12c0-.55-.75-1-1.07-1.75,0,0,.07,0,.09,0a5.48,5.48,0,0,1-1.39-2.06c.33.15.25.3.44.07-.16-.32-.35.24-.67-.41.06-.27,0-.78.24-.93,0,0,.23.63.23.63.21-.42-.29-.81-.31-1.18h.16c-.3-1-.69-.89-.94-2l-.09.14c-.52-.52.13-.54-.26-1.09l.36-.25a12.81,12.81,0,0,1-.75-2,10.87,10.87,0,0,1,.86,1.66A3.7,3.7,0,0,0,2.24,34c.06.15.19.34.15.5a2.85,2.85,0,0,1-.6-1.87c.77.1.06-2.07.76-2.62A6.63,6.63,0,0,1,2.61,28a18.79,18.79,0,0,0,.46-2.2c-.67.45.05-.46-.56-.48,0-.38.09-.51.13-.54l.64-1c.24-.21,0,.38.18.38.25-.77.34-.26.62-.74-.24,0-.23-.36,0-.78l-.43.55c0-1.21.78-.78.84-2l.06.4c.09-.59.72-2,.57-2.71.11-.06.32-.12.25.13a21.05,21.05,0,0,0,.82-2.07,5.34,5.34,0,0,1,1-1.72l.07.17c.1-.24,0-.56.32-.73,0,0,.06.17.14.08a2.15,2.15,0,0,1,.48-.94l0,.34a3.91,3.91,0,0,0,.91-1.46,7.45,7.45,0,0,1,.77-1.39c.34.31,1.13-.42,1.58-.72l0,.06a9.5,9.5,0,0,0,1.45-1.56,15.09,15.09,0,0,1,1.41-1.53,2.72,2.72,0,0,0,.86-.35c.31-.17.68-.35,1-.56a9.39,9.39,0,0,1,2.23-1.09c-.24,0-.12-.32.09-.48s.74-.69.86-.3l-.11,0c.4.25,1-.18,1.51-.33L20.66,4a5.3,5.3,0,0,0,2.49-.62c.82-.29,1.57-.58,2-.34a8.12,8.12,0,0,1,1.06-.47l0,.28c1-.05,1.44-.15,2.62-.32l-.22.21c.66,0,.78-.86,1.42-.9l.21.41c1.19-.12,2.35.39,3.54,0a.26.26,0,0,1-.26.19c.56,0,2.08.54,2-.08,0,.38,1.2.21,1.87.17l-.15.25a2.08,2.08,0,0,1,1.4-.21c.17.08.1.26-.12.13.54.29.52-.14,1.19.19l-.31.1c.59.18.58.05,1,0s1.09.47,1.09.74a.8.8,0,0,1,.84,0c0,.11-.14.11-.21.12.91.5,1.54.33,2.08.86a.2.2,0,0,0,0,.2,13,13,0,0,1-1.26-.65c-.1.24.47.56-.14.66a4.5,4.5,0,0,1,2.07.45.3.3,0,0,1,0,.12h-.07a.84.84,0,0,0,.38.14,2.63,2.63,0,0,0,.41.34c0,.22.58.49.85.67.12-.25.47,0,.25-.4,0,0-.07,0-.26-.11a.59.59,0,0,0-.14,0h0l-.71-.41a.93.93,0,0,1,.82.37,5.63,5.63,0,0,1,.64-.14c.19.57.81,1.2.75,1.49a9.38,9.38,0,0,0,2.76,1.35c.26.14.15.34.17.47-.16-.07-.3-.21-.41-.21.51.28,1.29,1.1,1.65.93.42.62-.52,0,.23.61l-.17,0a4.43,4.43,0,0,0,1.86,1.82,4.24,4.24,0,0,1,1.69,2.19c-.05-.15-.08-.22,0-.28.33.53.58,1.12.93,1.65s.73,1,1,1.63.6,1.13.86,1.71A6.63,6.63,0,0,1,58.85,21c.14.69.39.68.7,1l-.24.23.26.3.26.3A2.55,2.55,0,0,1,60,24.33a3.2,3.2,0,0,0,0,.77,2.13,2.13,0,0,0,.26.85l.17-.2c0,.47.34,1.46.1,1.41,0,0,.23.13.16.32l-.15,0,.22.56.16.57c-.07.9-.63-.09-.6,1.2.08.47.53,1.36.63,1.18s.07-.5.23-.52l.1.45c.47.08,1,.45,1.23-.71l-.32-.79.21-.27,0,.67c.19-.39,0-.63-.15-.89a.53.53,0,0,0,.23-.35l-.49-.74c.17-.11.4.32.43-.22-.26-.34-.35.39-.58-.19.15-.4.34-.32.09-.73.11-.08.2,0,.28.17-.2-.38-.22-1-.5-1.2a1.71,1.71,0,0,0,0-.83c-.05-.28-.09-.5.13-.53a2.76,2.76,0,0,1-.62-1C62,23.89,61,22,61.57,22c-.56-.36-.8-1.65-1.34-2.39.05,0,.16.1.16.18a3.6,3.6,0,0,1-.08-1c-.39.09-.8-.57-1.2-.83.08-.71.58.13.82-.19-.28.16-.75-.82-.89-.52,0-.52-.07-.41.11-.78-.47.16-.25-.36-.72-.54-.14-.69.31-.38-.21-.94C58.17,14.66,58.66,15.14,58.66,15.14ZM45.5,3.75h0l.33.14Zm-1.32-.63.57.28c0,.11-.09.18-.22.11C44.63,3.49,44.35,3.29,44.18,3.12Zm1.75,3.11c-.21-.08-.24-.16-.24-.23l.34.17,0,0A.35.35,0,0,1,45.93,6.23Z"/><path class="cls-6" d="M46.46,6.11l.09,0L46.47,6l-.11,0Z"/><path class="cls-6" d="M48.69,55h0Z"/><polygon class="cls-6" points="24.36 0.59 24.37 0.66 24.48 0.56 24.36 0.59"/><path class="cls-6" d="M55.07,50.33a.18.18,0,0,0,.12,0S55.12,50.3,55.07,50.33Z"/><path class="cls-6" d="M57.13,47.56l.34-.37A3.68,3.68,0,0,0,57.13,47.56Z"/><path class="cls-6" d="M58.6,45.33a.35.35,0,0,0-.08-.1h0Z"/><path class="cls-6" d="M22.33,60.76h-.1C22,60.73,22.14,60.76,22.33,60.76Z"/><path class="cls-6" d="M34.9,61.24a3,3,0,0,1-.38.19C34.74,61.42,34.92,61.4,34.9,61.24Z"/><polygon class="cls-6" points="9.88 53.89 9.88 53.89 9.81 53.83 9.88 53.89"/><path class="cls-6" d="M33.93,61.46a1.21,1.21,0,0,0,.58,0A1.89,1.89,0,0,0,33.93,61.46Z"/><path class="cls-6" d="M62.09,34.33l0-.13,0,0Z"/><path class="cls-6" d="M62.08,34.18l0-.15C62,34.1,62,34.16,62.08,34.18Z"/><path class="cls-6" d="M62,33.73l.06.31C62.06,33.93,62.07,33.8,62,33.73Z"/><path class="cls-6" d="M61.37,37.8l.09.06A.15.15,0,0,0,61.37,37.8Z"/><path class="cls-6" d="M61.13,38.85a3.39,3.39,0,0,0,.4-.94l-.07-.05C61.56,38.06,61,38.57,61.13,38.85Z"/><path class="cls-6" d="M58.55,42.61s.38-.78.38-.78c-.15.1-.36.23-.25-.14C58,42.58,59,41.57,58.55,42.61Z"/><path class="cls-6" d="M57.24,45c.16-.44-.14-.07-.18-.12C57,45.14,57,45.21,57.24,45Z"/><path class="cls-6" d="M43.35,57.83l-.06-.25C43,57.76,43.33,57.67,43.35,57.83Z"/><path class="cls-6" d="M40.29,60.39l.39,0,.09-.28-.24.13Z"/><polygon class="cls-6" points="37.69 59.18 37.83 59.11 37.29 59.34 37.69 59.18"/><path class="cls-6" d="M9,49.41l-.17.28C9.05,49.83,9.35,49.65,9,49.41Z"/><path class="cls-6" d="M2.78,37.18a.78.78,0,0,0,0-.79C2.76,36.7,2.69,37,2.78,37.18Z"/><polygon class="cls-6" points="21.45 4.1 21.23 4.29 21.68 4.03 21.45 4.1"/></g></g></g></svg>